<svg width="15" height="16" viewBox="0 0 15 16" fill="none" xmlns="http://www.w3.org/2000/svg">
<path d="M10.2857 6.7906C10.2857 5.68941 9.89435 4.74744 9.11161 3.9647C8.32887 3.18197 7.38691 2.7906 6.28571 2.7906C5.18452 2.7906 4.24256 3.18197 3.45982 3.9647C2.67708 4.74744 2.28571 5.68941 2.28571 6.7906C2.28571 7.89179 2.67708 8.83375 3.45982 9.61649C4.24256 10.3992 5.18452 10.7906 6.28571 10.7906C7.38691 10.7906 8.32887 10.3992 9.11161 9.61649C9.89435 8.83375 10.2857 7.89179 10.2857 6.7906ZM14.8571 14.2192C14.8571 14.5287 14.744 14.7966 14.5179 15.0227C14.2917 15.2489 14.0238 15.362 13.7143 15.362C13.3929 15.362 13.125 15.2489 12.9107 15.0227L9.84822 11.9692C8.78274 12.7073 7.59524 13.0763 6.28571 13.0763C5.43452 13.0763 4.62054 12.9111 3.84375 12.5808C3.06696 12.2504 2.39732 11.804 1.83482 11.2415C1.27232 10.679 0.825893 10.0093 0.495536 9.23256C0.165179 8.45578 0 7.64179 0 6.7906C0 5.93941 0.165179 5.12542 0.495536 4.34863C0.825893 3.57185 1.27232 2.9022 1.83482 2.3397C2.39732 1.7772 3.06696 1.33078 3.84375 1.00042C4.62054 0.670061 5.43452 0.504883 6.28571 0.504883C7.13691 0.504883 7.95089 0.670061 8.72768 1.00042C9.50447 1.33078 10.1741 1.7772 10.7366 2.3397C11.2991 2.9022 11.7455 3.57185 12.0759 4.34863C12.4063 5.12542 12.5714 5.93941 12.5714 6.7906C12.5714 8.10012 12.2024 9.28762 11.4643 10.3531L14.5268 13.4156C14.747 13.6358 14.8571 13.9037 14.8571 14.2192Z" fill="#5650A1"/>
</svg>
